<svg xmlns="http://www.w3.org/2000/svg" viewBox="0 0 1600 1200" width="1600" height="1200" role="img" aria-label="Placeholder image">
<defs><linearGradient id="g" x1="0" y1="0" x2="0" y2="1"><stop offset="0" stop-color="#dfe7d2"/><stop offset="0.55" stop-color="#a9bb98"/><stop offset="1" stop-color="#5f7550"/></linearGradient></defs>
<rect width="1600" height="1200" fill="url(#g)"/><ellipse cx="0" cy="566" rx="307" ry="75" fill="#a9bb98" opacity="0.35" transform="rotate(12 0 566)"/><ellipse cx="1553" cy="601" rx="153" ry="74" fill="#a9bb98" opacity="0.35" transform="rotate(-4 1553 601)"/><ellipse cx="722" cy="637" rx="235" ry="97" fill="#a9bb98" opacity="0.35" transform="rotate(-1 722 637)"/><ellipse cx="1228" cy="546" rx="144" ry="114" fill="#a9bb98" opacity="0.35" transform="rotate(4 1228 546)"/><ellipse cx="1212" cy="566" rx="195" ry="105" fill="#a9bb98" opacity="0.35" transform="rotate(5 1212 566)"/><ellipse cx="1188" cy="659" rx="326" ry="149" fill="#a9bb98" opacity="0.35" transform="rotate(-8 1188 659)"/><ellipse cx="309" cy="664" rx="209" ry="111" fill="#a9bb98" opacity="0.35" transform="rotate(5 309 664)"/><ellipse cx="1527" cy="844" rx="309" ry="170" fill="#5f7550" opacity="0.55" transform="rotate(-8 1527 844)"/><ellipse cx="357" cy="865" rx="241" ry="154" fill="#5f7550" opacity="0.55" transform="rotate(15 357 865)"/><ellipse cx="1047" cy="843" rx="344" ry="115" fill="#5f7550" opacity="0.55" transform="rotate(17 1047 843)"/><ellipse cx="1438" cy="787" rx="159" ry="117" fill="#5f7550" opacity="0.55" transform="rotate(-11 1438 787)"/><ellipse cx="798" cy="799" rx="146" ry="82" fill="#5f7550" opacity="0.55" transform="rotate(2 798 799)"/><ellipse cx="227" cy="822" rx="273" ry="165" fill="#5f7550" opacity="0.55" transform="rotate(15 227 822)"/><ellipse cx="713" cy="801" rx="311" ry="124" fill="#5f7550" opacity="0.55" transform="rotate(7 713 801)"/><ellipse cx="810" cy="1014" rx="239" ry="87" fill="#2f3f2a" opacity="0.75" transform="rotate(11 810 1014)"/><ellipse cx="288" cy="1016" rx="229" ry="162" fill="#2f3f2a" opacity="0.75" transform="rotate(17 288 1016)"/><ellipse cx="721" cy="966" rx="160" ry="84" fill="#2f3f2a" opacity="0.75" transform="rotate(13 721 966)"/><ellipse cx="1065" cy="1038" rx="246" ry="179" fill="#2f3f2a" opacity="0.75" transform="rotate(20 1065 1038)"/><ellipse cx="158" cy="1057" rx="164" ry="134" fill="#2f3f2a" opacity="0.75" transform="rotate(-7 158 1057)"/><ellipse cx="982" cy="1050" rx="256" ry="111" fill="#2f3f2a" opacity="0.75" transform="rotate(10 982 1050)"/><ellipse cx="1337" cy="978" rx="259" ry="133" fill="#2f3f2a" opacity="0.75" transform="rotate(-5 1337 978)"/>
<text x="40" y="1160" font-family="Helvetica, Arial, sans-serif" font-size="23" fill="#ffffff" opacity="0.85" letter-spacing="2">PLACEHOLDER PHOTO</text>
</svg>
